# xmcd
#
# Track frame offsets: 
#        150
#        20214
#        40201
#        59526
#        82229
#        103496
#        126910
#        146764
#        167180
#        193713
#        208724
#        225361
#        249343
#        266070
#
# Disc length: 3781 seconds
#
# Revision: 0
# Processed by: cddbd v1.5.2PL0 Copyright (c) Steve Scherf et al.
# Submitted via: ExactAudioCopyFreeDBPlugin 1.0
#
DISCID=d80ec30e
DTITLE=Emmylou Harris And Linda Ronstadt - Live On KSWM (The 1999 Radi
DTITLE=o Broadcast) CD1
DYEAR=2015
DGENRE=Country
TTITLE0=Loving The Highwayman
TTITLE1=For A Dancer
TTITLE2=Raise The Dead
TTITLE3=Icy Blue Heart
TTITLE4=The Blue Train
TTITLE5=Valerie
TTITLE6=It Doesn't Matter Anymore
TTITLE7=Blue Bayou
TTITLE8=1917
TTITLE9=Green Pastures
TTITLE10=Orphan Girl
TTITLE11=Telling Me lies
TTITLE12=All I Left Behind
TTITLE13=Get Up John
EXTD=
EXTT0=
EXTT1=
EXTT2=
EXTT3=
EXTT4=
EXTT5=
EXTT6=
EXTT7=
EXTT8=
EXTT9=
EXTT10=
EXTT11=
EXTT12=
EXTT13=
PLAYORDER=
